<svg width="23" height="21" viewBox="0 0 23 21" fill="none" xmlns="http://www.w3.org/2000/svg">
<path d="M19.6633 12.051C16.3799 14.7094 12.6953 16.5877 10.1051 19.7663C9.92264 19.9686 9.6308 19.9975 9.33894 19.9108C9.15653 20.0553 8.82821 20.0842 8.57283 19.8819C5.58132 17.1945 3.7937 14.0737 2.51684 10.7506C1.49535 8.09214 -0.620594 3.95995 1.49535 1.44596C2.88166 -0.23003 5.69075 -0.316716 7.91614 0.636866C10.3969 1.70603 11.3454 3.67098 11.8197 5.66483C12.8047 4.22001 14.264 2.97748 16.5623 2.71741C19.2255 2.42845 21.5603 3.84437 22.3265 5.78043C23.2385 8.14993 21.6333 10.4328 19.6633 12.051ZM20.6118 5.60706C19.4809 3.81548 16.7083 3.43982 14.8112 4.53788C13.3155 5.37588 12.6588 6.73401 12.0751 8.03434C11.8562 8.55448 10.7252 8.41001 10.6523 7.86097C10.3239 5.54926 9.92264 2.45734 6.63928 1.41707C5.43538 0.896938 4.52334 1.15701 3.7937 2.13948C2.29795 2.57293 1.75073 3.35313 2.18851 4.53788C2.26148 5.57816 2.6263 6.61843 2.91815 7.62981C4.12205 11.6753 5.87317 15.5474 8.97412 19.015C11.2725 16.0098 14.4829 14.1893 17.7298 11.8487C19.8457 10.3461 22.1076 7.97656 20.6118 5.60706Z" fill="#1F1F1F"/>
</svg>
